<svg width="24" height="25" viewBox="0 0 24 25" fill="none" xmlns="http://www.w3.org/2000/svg">
<path d="M22 17.6232V20.6232C22.0011 20.9017 21.9441 21.1774 21.8325 21.4326C21.7209 21.6877 21.5573 21.9168 21.3521 22.1051C21.1468 22.2934 20.9046 22.4367 20.6407 22.5259C20.3769 22.6152 20.0974 22.6483 19.82 22.6232C16.7428 22.2889 13.787 21.2374 11.19 19.5532C8.77382 18.0179 6.72533 15.9694 5.18999 13.5532C3.49997 10.9444 2.44824 7.97422 2.11999 4.88322C2.095 4.60669 2.12787 4.32798 2.21649 4.06485C2.30512 3.80171 2.44756 3.55991 2.63476 3.35484C2.82196 3.14977 3.0498 2.98593 3.30379 2.87374C3.55777 2.76156 3.83233 2.70348 4.10999 2.70322H7.10999C7.5953 2.69845 8.06579 2.8703 8.43376 3.18675C8.80173 3.50321 9.04207 3.94267 9.10999 4.42322C9.23662 5.38329 9.47144 6.32595 9.80999 7.23322C9.94454 7.59115 9.97366 7.98014 9.8939 8.3541C9.81415 8.72807 9.62886 9.07133 9.35999 9.34322L8.08999 10.6132C9.51355 13.1168 11.5864 15.1897 14.09 16.6132L15.36 15.3432C15.6319 15.0744 15.9751 14.8891 16.3491 14.8093C16.7231 14.7296 17.1121 14.7587 17.47 14.8932C18.3773 15.2318 19.3199 15.4666 20.28 15.5932C20.7658 15.6618 21.2094 15.9064 21.5265 16.2807C21.8437 16.655 22.0122 17.1328 22 17.6232Z" stroke="white" stroke-width="2" stroke-linecap="round" stroke-linejoin="round"/>
</svg>
